<?xml version="1.0" encoding="UTF-8"?>
<svg id="Layer_2" data-name="Layer 2" xmlns="http://www.w3.org/2000/svg" viewBox="0 0 409.94 185.21">
  <defs>
    <style>
      .cls-1 {
        fill: #257cc6;
      }

      .cls-2 {
        fill: #fff;
      }

      .cls-3 {
        fill: #46b66f;
      }
    </style>
  </defs>
  <g id="Layer_1-2" data-name="Layer 1">
    <g>
      <g>
        <rect class="cls-1" width="185.21" height="185.21" rx="26.47" ry="26.47"/>
        <g>
          <rect class="cls-2" x="26.88" y="28.59" width="131.46" height="35.37" rx="8.89" ry="8.89"/>
          <rect class="cls-2" x="26.88" y="74.92" width="99.8" height="35.37" rx="8.89" ry="8.89"/>
          <rect class="cls-2" x="26.88" y="121.26" width="75.83" height="35.37" rx="8.89" ry="8.89"/>
        </g>
        <circle class="cls-3" cx="145.02" cy="140.65" r="29.56"/>
        <path class="cls-2" d="M161.64,134.87l-17.93,17.93c-1.46,1.47-3.84,1.47-5.31,0l-10.07-10.08c-1.47-1.46-1.47-3.84,0-5.31l1-1c1.46-1.46,3.84-1.46,5.31,0l6.42,6.42,14.28-14.28c1.56-1.56,4.09-1.56,5.65,0l.65.65c1.56,1.56,1.56,4.09,0,5.65Z"/>
      </g>
      <g>
        <path class="cls-2" d="M211.26,36.56v-11.07h52.58v11.07h-19.63v53.36h-13.23v-53.36h-19.72Z"/>
        <path class="cls-2" d="M278.58,90.82c-3.06,0-5.79-.53-8.22-1.6-2.42-1.07-4.32-2.66-5.71-4.78s-2.08-4.75-2.08-7.89c0-2.68.49-4.91,1.47-6.7.98-1.79,2.32-3.23,4.02-4.32,1.7-1.09,3.64-1.92,5.82-2.49,2.18-.56,4.46-.96,6.85-1.19,2.79-.29,5.04-.55,6.75-.8,1.7-.24,2.94-.63,3.72-1.15.78-.52,1.17-1.3,1.17-2.33v-.22c0-1.33-.3-2.46-.89-3.39-.59-.94-1.45-1.66-2.57-2.16-1.12-.5-2.49-.76-4.11-.76s-3.08.25-4.3.76c-1.23.5-2.22,1.18-2.98,2.03-.76.85-1.3,1.81-1.62,2.88l-11.89-1.51c.66-2.88,1.93-5.35,3.8-7.39,1.87-2.05,4.27-3.61,7.18-4.69,2.91-1.08,6.23-1.62,9.94-1.62,2.71,0,5.28.32,7.72.95,2.44.63,4.6,1.61,6.51,2.94,1.9,1.33,3.39,3,4.48,5.04s1.62,4.46,1.62,7.29v32.21h-12.32v-6.66h-.39c-.78,1.5-1.81,2.82-3.09,3.96-1.28,1.14-2.82,2.03-4.6,2.66-1.79.63-3.88.95-6.27.95ZM282.21,81.79c2.05,0,3.83-.4,5.36-1.21,1.53-.81,2.72-1.89,3.59-3.24.87-1.35,1.3-2.88,1.3-4.58v-5.06c-.38.23-.93.46-1.66.69-.74.23-1.56.43-2.49.61-.92.17-1.85.33-2.79.48-.94.14-1.79.27-2.57.39-1.56.23-2.94.6-4.15,1.1-1.21.5-2.15,1.18-2.81,2.03-.66.85-.99,1.91-.99,3.18s.31,2.23.93,3.07c.62.84,1.47,1.47,2.55,1.9,1.08.43,2.33.65,3.74.65Z"/>
        <path class="cls-2" d="M334.96,90.91c-3.89,0-7.34-.57-10.36-1.71-3.01-1.14-5.46-2.79-7.35-4.95-1.89-2.16-3.08-4.76-3.57-7.78l12.15-1.64c.55,2.19,1.6,3.85,3.16,4.97,1.56,1.12,3.63,1.69,6.23,1.69,2.45,0,4.38-.47,5.79-1.41,1.41-.94,2.12-2.13,2.12-3.57,0-1.24-.51-2.26-1.54-3.05-1.02-.79-2.56-1.41-4.6-1.84l-8.26-1.64c-4.61-.95-8.07-2.56-10.38-4.84-2.31-2.28-3.46-5.22-3.46-8.82,0-3.03.83-5.65,2.49-7.87,1.66-2.22,3.99-3.93,7-5.15,3.01-1.21,6.54-1.82,10.57-1.82s7.21.55,10.03,1.64c2.83,1.1,5.09,2.65,6.81,4.67,1.71,2.02,2.8,4.4,3.26,7.13l-11.54,1.6c-.4-1.7-1.3-3.09-2.7-4.17-1.4-1.08-3.26-1.62-5.6-1.62-2.16,0-3.94.45-5.34,1.36-1.4.91-2.1,2.08-2.1,3.52,0,1.21.48,2.23,1.43,3.05.95.82,2.51,1.45,4.67,1.88l8.65,1.73c4.67.92,8.14,2.45,10.4,4.58,2.26,2.13,3.39,4.91,3.39,8.34,0,3.14-.91,5.89-2.72,8.24-1.82,2.35-4.33,4.18-7.54,5.49-3.21,1.31-6.91,1.97-11.09,1.97Z"/>
        <path class="cls-2" d="M364.67,89.91V25.49h12.88v64.43h-12.88ZM376.34,75.99v-15.48h1.86l15.83-18.33h15l-20.84,23.95h-3.03l-8.82,9.86ZM394.76,89.91l-14.48-20.88,8.6-9.17,21.06,30.05h-15.18Z"/>
        <path class="cls-2" d="M213.9,167.86v-64.43h42.94v11.07h-29.71v17.51h27.02v10.81h-27.02v25.04h-13.23Z"/>
        <path class="cls-2" d="M278.41,103.44v64.43h-12.88v-64.43h12.88Z"/>
        <path class="cls-2" d="M310.58,168.81c-4.81,0-8.99-1.03-12.52-3.09-3.53-2.06-6.26-4.94-8.17-8.65-1.92-3.7-2.88-8.01-2.88-12.91s.96-9.29,2.88-12.99,4.64-6.59,8.17-8.65c3.53-2.06,7.7-3.09,12.52-3.09s8.94,1.03,12.47,3.09c3.53,2.06,6.25,4.94,8.17,8.65s2.88,8.04,2.88,12.99-.96,9.2-2.88,12.91c-1.92,3.7-4.64,6.59-8.17,8.65-3.53,2.06-7.69,3.09-12.47,3.09ZM310.58,158.61c2.25,0,4.14-.62,5.69-1.86,1.54-1.24,2.72-2.95,3.52-5.12.81-2.18,1.21-4.68,1.21-7.5s-.4-5.36-1.21-7.52-1.98-3.86-3.52-5.1c-1.54-1.24-3.44-1.86-5.69-1.86s-4.15.62-5.71,1.86-2.73,2.94-3.52,5.1c-.79,2.16-1.19,4.67-1.19,7.52s.4,5.33,1.19,7.5c.79,2.18,1.96,3.88,3.5,5.12s3.45,1.86,5.73,1.86Z"/>
        <path class="cls-2" d="M351.57,167.86l-14.23-47.74h13.53l4.19,17.42c.75,3.23,1.54,6.7,2.36,10.4s1.59,7.7,2.31,12h-1.56c.78-4.24,1.61-8.21,2.49-11.93.88-3.72,1.72-7.21,2.53-10.46l4.41-17.42h11.85l4.28,17.42c.78,3.26,1.61,6.74,2.49,10.44.88,3.7,1.71,7.69,2.49,11.96h-1.51c.72-4.24,1.47-8.21,2.25-11.91.78-3.7,1.54-7.2,2.29-10.49l4.19-17.42h13.75l-14.31,47.74h-13.19l-5.32-18.55c-.52-1.82-1.04-3.81-1.56-5.99-.52-2.18-1.02-4.39-1.51-6.64-.49-2.25-.98-4.37-1.47-6.36h2.29c-.49,1.99-.98,4.11-1.47,6.36-.49,2.25-.99,4.46-1.49,6.64-.5,2.18-1.03,4.17-1.58,5.99l-5.36,18.55h-13.14Z"/>
      </g>
    </g>
  </g>
</svg>